<svg xmlns="http://www.w3.org/2000/svg" xmlns:xlink="http://www.w3.org/1999/xlink" version="1.1" xml:space="preserve" viewBox="0 0 999.7 535.68"><desc>Created with Fabric.js 3.5.0</desc><defs/><rect x="0" y="0" width="100%" height="100%" fill="#ffffff"/><g transform="matrix(0.1122 0 0 -0.1122 499.851 499.9894)" id="38909"><path style="stroke: none; stroke-width: 1; stroke-dasharray: none; stroke-linecap: butt; stroke-dashoffset: 0; stroke-linejoin: miter; stroke-miterlimit: 4; is-custom-font: none; font-file-url: none; fill: rgb(19,34,28); fill-rule: nonzero; opacity: 1;" vector-effect="non-scaling-stroke" transform=" translate(-4455, -318.0579)" d="M 5180 630 c -261 -23 -514 -69 -880 -160 c -528 -132 -847 -174 -1320 -174 c -386 0 -597 19 -1265 114 c -535 76 -781 100 -1031 100 c -199 0 -449 -24 -632 -61 l -52 -10 l 0 -220 l 0 -219 l 4455 0 l 4455 0 l 0 131 l 0 132 l -46 -7 c -102 -14 -655 -18 -869 -7 c -505 27 -818 75 -1432 221 c -349 83 -540 122 -713 145 c -148 19 -521 28 -670 15 z" stroke-linecap="round"/></g></svg>