
<svg version="1.0" xmlns="http://www.w3.org/2000/svg"
 width="1265.000000pt" height="94.000000pt" viewBox="0 0 1265.000000 94.000000"
 preserveAspectRatio="xMidYMid meet">
<metadata>
Created by potrace 1.16, written by Peter Selinger 2001-2019
</metadata>
<g transform="translate(0.000000,94.000000) scale(0.100000,-0.100000)"
fill="#ffffff" stroke="none">
<path d="M7345 794 c-11 -1 -69 -8 -130 -14 -305 -32 -598 -88 -1185 -229
-797 -190 -1135 -232 -1855 -232 -570 0 -831 23 -1775 156 -736 104 -1032 134
-1380 142 -335 7 -671 -16 -957 -68 l-63 -11 0 -269 0 -269 6325 0 6325 0 0
131 0 131 -22 -7 c-44 -13 -1026 -18 -1249 -6 -728 40 -1083 96 -2084 326
-690 159 -896 196 -1190 215 -134 9 -709 12 -760 4z"/>
</g>
</svg>
